<mxfile host="Electron" agent="Mozilla/5.0 (X11; Linux x86_64) AppleWebKit/537.36 (KHTML, like Gecko) draw.io/27.0.9 Chrome/134.0.6998.205 Electron/35.4.0 Safari/537.36" version="27.0.9">
  <diagram name="PÃ¡gina-1" id="yk4p5NfUcrVmfH9kB3IH">
    <mxGraphModel dx="277" dy="170" grid="0" gridSize="10" guides="1" tooltips="1" connect="1" arrows="1" fold="1" page="1" pageScale="1" pageWidth="827" pageHeight="1169" math="0" shadow="0">
      <root>
        <mxCell id="0" />
        <mxCell id="1" parent="0" />
        <mxCell id="OQd5zt1Ku8iusi2i4V9Q-22" style="edgeStyle=orthogonalEdgeStyle;rounded=0;orthogonalLoop=1;jettySize=auto;html=1;exitX=0;exitY=0.5;exitDx=0;exitDy=0;" parent="1" source="OQd5zt1Ku8iusi2i4V9Q-6" target="OQd5zt1Ku8iusi2i4V9Q-21" edge="1">
          <mxGeometry relative="1" as="geometry" />
        </mxCell>
        <mxCell id="OQd5zt1Ku8iusi2i4V9Q-6" value="" style="rounded=0;whiteSpace=wrap;html=1;" parent="1" vertex="1">
          <mxGeometry x="307" y="399" width="60" height="60" as="geometry" />
        </mxCell>
        <mxCell id="OQd5zt1Ku8iusi2i4V9Q-13" style="edgeStyle=orthogonalEdgeStyle;rounded=0;orthogonalLoop=1;jettySize=auto;html=1;entryX=0;entryY=0.5;entryDx=0;entryDy=0;entryPerimeter=0;" parent="1" source="OQd5zt1Ku8iusi2i4V9Q-7" target="OQd5zt1Ku8iusi2i4V9Q-14" edge="1">
          <mxGeometry relative="1" as="geometry">
            <mxPoint x="387" y="349" as="targetPoint" />
          </mxGeometry>
        </mxCell>
        <mxCell id="OQd5zt1Ku8iusi2i4V9Q-7" value="" style="rounded=0;whiteSpace=wrap;html=1;" parent="1" vertex="1">
          <mxGeometry x="247" y="319" width="60" height="60" as="geometry" />
        </mxCell>
        <mxCell id="OQd5zt1Ku8iusi2i4V9Q-11" style="edgeStyle=orthogonalEdgeStyle;rounded=0;orthogonalLoop=1;jettySize=auto;html=1;entryX=0;entryY=0.25;entryDx=0;entryDy=0;" parent="1" source="OQd5zt1Ku8iusi2i4V9Q-8" target="OQd5zt1Ku8iusi2i4V9Q-7" edge="1">
          <mxGeometry relative="1" as="geometry" />
        </mxCell>
        <mxCell id="OQd5zt1Ku8iusi2i4V9Q-8" value="&lt;div&gt;Texto&lt;/div&gt;&lt;div&gt;Plano&lt;/div&gt;" style="text;html=1;align=center;verticalAlign=middle;resizable=0;points=[];autosize=1;strokeColor=none;fillColor=none;fontStyle=1" parent="1" vertex="1">
          <mxGeometry x="158" y="314" width="49" height="41" as="geometry" />
        </mxCell>
        <mxCell id="OQd5zt1Ku8iusi2i4V9Q-9" value="&lt;div&gt;K&lt;/div&gt;" style="text;html=1;align=center;verticalAlign=middle;resizable=0;points=[];autosize=1;strokeColor=none;fillColor=none;fontStyle=1" parent="1" vertex="1">
          <mxGeometry x="167.5" y="352" width="30" height="30" as="geometry" />
        </mxCell>
        <mxCell id="OQd5zt1Ku8iusi2i4V9Q-14" value="&lt;div&gt;Texto&lt;/div&gt;&lt;div&gt;Cifrado&lt;br&gt;&lt;/div&gt;" style="text;html=1;align=center;verticalAlign=middle;resizable=0;points=[];autosize=1;strokeColor=none;fillColor=none;fontStyle=1" parent="1" vertex="1">
          <mxGeometry x="337" y="329" width="60" height="40" as="geometry" />
        </mxCell>
        <mxCell id="OQd5zt1Ku8iusi2i4V9Q-15" style="edgeStyle=orthogonalEdgeStyle;rounded=0;orthogonalLoop=1;jettySize=auto;html=1;entryX=1;entryY=0.333;entryDx=0;entryDy=0;entryPerimeter=0;" parent="1" source="OQd5zt1Ku8iusi2i4V9Q-14" target="OQd5zt1Ku8iusi2i4V9Q-6" edge="1">
          <mxGeometry relative="1" as="geometry">
            <Array as="points">
              <mxPoint x="407" y="349" />
              <mxPoint x="407" y="419" />
            </Array>
          </mxGeometry>
        </mxCell>
        <mxCell id="OQd5zt1Ku8iusi2i4V9Q-17" value="K" style="text;html=1;align=center;verticalAlign=middle;resizable=0;points=[];autosize=1;strokeColor=none;fillColor=none;fontStyle=1" parent="1" vertex="1">
          <mxGeometry x="387" y="427" width="30" height="30" as="geometry" />
        </mxCell>
        <mxCell id="OQd5zt1Ku8iusi2i4V9Q-18" style="edgeStyle=orthogonalEdgeStyle;rounded=0;orthogonalLoop=1;jettySize=auto;html=1;entryX=1;entryY=0.717;entryDx=0;entryDy=0;entryPerimeter=0;" parent="1" source="OQd5zt1Ku8iusi2i4V9Q-17" target="OQd5zt1Ku8iusi2i4V9Q-6" edge="1">
          <mxGeometry relative="1" as="geometry" />
        </mxCell>
        <mxCell id="OQd5zt1Ku8iusi2i4V9Q-21" value="&lt;div&gt;Texto&lt;/div&gt;&lt;div&gt;Plano&lt;/div&gt;" style="text;html=1;align=center;verticalAlign=middle;resizable=0;points=[];autosize=1;strokeColor=none;fillColor=none;fontStyle=1" parent="1" vertex="1">
          <mxGeometry x="227" y="409" width="50" height="40" as="geometry" />
        </mxCell>
        <mxCell id="OQd5zt1Ku8iusi2i4V9Q-23" value="" style="html=1;verticalLabelPosition=bottom;align=center;labelBackgroundColor=#ffffff;verticalAlign=top;strokeWidth=2;strokeColor=light-dark(#036897, #ededed);shadow=0;dashed=0;shape=mxgraph.ios7.icons.unlocked;" parent="1" vertex="1">
          <mxGeometry x="325" y="414" width="24" height="30" as="geometry" />
        </mxCell>
        <mxCell id="OQd5zt1Ku8iusi2i4V9Q-24" value="" style="html=1;verticalLabelPosition=bottom;align=center;labelBackgroundColor=#ffffff;verticalAlign=top;strokeWidth=2;strokeColor=light-dark(#036897, #32a0ff);shadow=0;dashed=0;shape=mxgraph.ios7.icons.locked;" parent="1" vertex="1">
          <mxGeometry x="265" y="334" width="24" height="30" as="geometry" />
        </mxCell>
        <mxCell id="OQd5zt1Ku8iusi2i4V9Q-26" style="edgeStyle=orthogonalEdgeStyle;rounded=0;orthogonalLoop=1;jettySize=auto;html=1;entryX=-0.003;entryY=0.814;entryDx=0;entryDy=0;entryPerimeter=0;" parent="1" source="OQd5zt1Ku8iusi2i4V9Q-9" target="OQd5zt1Ku8iusi2i4V9Q-7" edge="1">
          <mxGeometry relative="1" as="geometry" />
        </mxCell>
        <mxCell id="zcF08zmWCknQUNf7fidN-1" style="edgeStyle=orthogonalEdgeStyle;rounded=0;orthogonalLoop=1;jettySize=auto;html=1;exitX=0;exitY=0.5;exitDx=0;exitDy=0;" parent="1" source="zcF08zmWCknQUNf7fidN-2" target="zcF08zmWCknQUNf7fidN-12" edge="1">
          <mxGeometry relative="1" as="geometry" />
        </mxCell>
        <mxCell id="zcF08zmWCknQUNf7fidN-2" value="" style="rounded=0;whiteSpace=wrap;html=1;" parent="1" vertex="1">
          <mxGeometry x="280" y="655" width="60" height="60" as="geometry" />
        </mxCell>
        <mxCell id="zcF08zmWCknQUNf7fidN-3" style="edgeStyle=orthogonalEdgeStyle;rounded=0;orthogonalLoop=1;jettySize=auto;html=1;entryX=0;entryY=0.5;entryDx=0;entryDy=0;entryPerimeter=0;" parent="1" source="zcF08zmWCknQUNf7fidN-4" target="zcF08zmWCknQUNf7fidN-8" edge="1">
          <mxGeometry relative="1" as="geometry">
            <mxPoint x="360" y="605" as="targetPoint" />
          </mxGeometry>
        </mxCell>
        <mxCell id="zcF08zmWCknQUNf7fidN-4" value="" style="rounded=0;whiteSpace=wrap;html=1;" parent="1" vertex="1">
          <mxGeometry x="220" y="575" width="60" height="60" as="geometry" />
        </mxCell>
        <mxCell id="zcF08zmWCknQUNf7fidN-5" style="edgeStyle=orthogonalEdgeStyle;rounded=0;orthogonalLoop=1;jettySize=auto;html=1;entryX=0;entryY=0.25;entryDx=0;entryDy=0;" parent="1" source="zcF08zmWCknQUNf7fidN-6" target="zcF08zmWCknQUNf7fidN-4" edge="1">
          <mxGeometry relative="1" as="geometry" />
        </mxCell>
        <mxCell id="zcF08zmWCknQUNf7fidN-6" value="&lt;div&gt;Texto&lt;/div&gt;&lt;div&gt;Plano&lt;/div&gt;" style="text;html=1;align=center;verticalAlign=middle;resizable=0;points=[];autosize=1;strokeColor=none;fillColor=none;fontStyle=1" parent="1" vertex="1">
          <mxGeometry x="131" y="570" width="49" height="41" as="geometry" />
        </mxCell>
        <mxCell id="zcF08zmWCknQUNf7fidN-7" value="pub&lt;sub&gt;B&lt;/sub&gt;" style="text;html=1;align=center;verticalAlign=middle;resizable=0;points=[];autosize=1;strokeColor=none;fillColor=none;fontStyle=1" parent="1" vertex="1">
          <mxGeometry x="133.5" y="609" width="45" height="29" as="geometry" />
        </mxCell>
        <mxCell id="zcF08zmWCknQUNf7fidN-8" value="&lt;div&gt;Texto&lt;/div&gt;&lt;div&gt;Cifrado&lt;br&gt;&lt;/div&gt;" style="text;html=1;align=center;verticalAlign=middle;resizable=0;points=[];autosize=1;strokeColor=none;fillColor=none;fontStyle=1" parent="1" vertex="1">
          <mxGeometry x="310" y="585" width="60" height="40" as="geometry" />
        </mxCell>
        <mxCell id="zcF08zmWCknQUNf7fidN-9" style="edgeStyle=orthogonalEdgeStyle;rounded=0;orthogonalLoop=1;jettySize=auto;html=1;entryX=1;entryY=0.333;entryDx=0;entryDy=0;entryPerimeter=0;" parent="1" source="zcF08zmWCknQUNf7fidN-8" target="zcF08zmWCknQUNf7fidN-2" edge="1">
          <mxGeometry relative="1" as="geometry">
            <Array as="points">
              <mxPoint x="380" y="605" />
              <mxPoint x="380" y="675" />
            </Array>
          </mxGeometry>
        </mxCell>
        <mxCell id="zcF08zmWCknQUNf7fidN-10" value="priv&lt;sub&gt;B&lt;/sub&gt;" style="text;html=1;align=center;verticalAlign=middle;resizable=0;points=[];autosize=1;strokeColor=none;fillColor=none;fontStyle=1" parent="1" vertex="1">
          <mxGeometry x="369" y="681" width="44" height="29" as="geometry" />
        </mxCell>
        <mxCell id="zcF08zmWCknQUNf7fidN-12" value="&lt;div&gt;Texto&lt;/div&gt;&lt;div&gt;Plano&lt;/div&gt;" style="text;html=1;align=center;verticalAlign=middle;resizable=0;points=[];autosize=1;strokeColor=none;fillColor=none;fontStyle=1" parent="1" vertex="1">
          <mxGeometry x="200" y="665" width="50" height="40" as="geometry" />
        </mxCell>
        <mxCell id="zcF08zmWCknQUNf7fidN-13" value="" style="html=1;verticalLabelPosition=bottom;align=center;labelBackgroundColor=#ffffff;verticalAlign=top;strokeWidth=2;strokeColor=light-dark(#036897, #ededed);shadow=0;dashed=0;shape=mxgraph.ios7.icons.unlocked;" parent="1" vertex="1">
          <mxGeometry x="298" y="670" width="24" height="30" as="geometry" />
        </mxCell>
        <mxCell id="zcF08zmWCknQUNf7fidN-14" value="" style="html=1;verticalLabelPosition=bottom;align=center;labelBackgroundColor=#ffffff;verticalAlign=top;strokeWidth=2;strokeColor=light-dark(#036897, #32a0ff);shadow=0;dashed=0;shape=mxgraph.ios7.icons.locked;" parent="1" vertex="1">
          <mxGeometry x="238" y="590" width="24" height="30" as="geometry" />
        </mxCell>
        <mxCell id="zcF08zmWCknQUNf7fidN-15" style="edgeStyle=orthogonalEdgeStyle;rounded=0;orthogonalLoop=1;jettySize=auto;html=1;entryX=-0.003;entryY=0.814;entryDx=0;entryDy=0;entryPerimeter=0;" parent="1" source="zcF08zmWCknQUNf7fidN-7" target="zcF08zmWCknQUNf7fidN-4" edge="1">
          <mxGeometry relative="1" as="geometry" />
        </mxCell>
        <mxCell id="zcF08zmWCknQUNf7fidN-16" value="A" style="text;html=1;align=center;verticalAlign=middle;resizable=0;points=[];autosize=1;strokeColor=none;fillColor=none;fontStyle=1" parent="1" vertex="1">
          <mxGeometry x="235" y="550" width="30" height="30" as="geometry" />
        </mxCell>
        <mxCell id="zcF08zmWCknQUNf7fidN-17" value="B" style="text;html=1;align=center;verticalAlign=middle;resizable=0;points=[];autosize=1;strokeColor=none;fillColor=none;fontStyle=1" parent="1" vertex="1">
          <mxGeometry x="295" y="629" width="30" height="30" as="geometry" />
        </mxCell>
        <mxCell id="zcF08zmWCknQUNf7fidN-18" style="edgeStyle=orthogonalEdgeStyle;rounded=0;orthogonalLoop=1;jettySize=auto;html=1;entryX=1;entryY=0.667;entryDx=0;entryDy=0;entryPerimeter=0;" parent="1" source="zcF08zmWCknQUNf7fidN-10" target="zcF08zmWCknQUNf7fidN-2" edge="1">
          <mxGeometry relative="1" as="geometry" />
        </mxCell>
        <mxCell id="bczulPa1xlOYZL0PECw4-1" value="A" style="text;html=1;align=center;verticalAlign=middle;resizable=0;points=[];autosize=1;strokeColor=none;fillColor=none;fontStyle=1" vertex="1" parent="1">
          <mxGeometry x="262" y="293" width="30" height="30" as="geometry" />
        </mxCell>
        <mxCell id="bczulPa1xlOYZL0PECw4-2" value="B" style="text;html=1;align=center;verticalAlign=middle;resizable=0;points=[];autosize=1;strokeColor=none;fillColor=none;fontStyle=1" vertex="1" parent="1">
          <mxGeometry x="322" y="374" width="30" height="30" as="geometry" />
        </mxCell>
      </root>
    </mxGraphModel>
  </diagram>
</mxfile>
